<svg t="1728665493176"
    class="icon icon-tabler icon-tabler-clock" 
    viewBox="0 0 1024 1024"
    xmlns="http://www.w3.org/2000/svg" 
    p-id="6574" 
    fill="currentColor" >
<path d="M640 42.666667a42.666667 42.666667 0 0 1 30.165333 12.501333l213.333334 213.333333A42.666667 42.666667 0 0 1 896 298.666667v597.333333a85.333333 85.333333 0 0 1-85.333333 85.333333H213.333333a85.333333 85.333333 0 0 1-85.333333-85.333333V128a85.333333 85.333333 0 0 1 85.333333-85.333333z m-17.706667 85.333333H213.333333v768h597.333334V316.373333L622.293333 128z m69.504 256.938667a42.666667 42.666667 0 0 1 32.768 50.688l-64 298.666666c-8.448 39.424-61.866667 46.208-79.872 10.112l-68.522666-137.002666-68.48 137.002666c-17.28 34.517333-66.858667 29.824-78.549334-5.162666l-1.365333-4.949334-64-298.666666a42.666667 42.666667 0 1 1 83.456-17.92l38.485333 179.754666 52.309334-104.533333a42.666667 42.666667 0 0 1 73.6-4.693333l2.730666 4.693333 52.224 104.533333 38.528-179.754666a42.666667 42.666667 0 0 1 50.688-32.768z" p-id="6575" >
</path>
</svg>
